<?xml version="1.0" encoding="UTF-8"?>
<svg xmlns="http://www.w3.org/2000/svg" xmlns:xlink="http://www.w3.org/1999/xlink"
     width="256" height="256" viewBox="-128.0 -128.0 256 256">
<defs>
</defs>
<circle cx="22.0" cy="10.0" r="2" fill="black" />
<circle cx="20.96254549171121" cy="14.880839716909602" r="2" fill="black" />
<circle cx="18.0295672763063" cy="18.917737905728732" r="2" fill="black" />
<circle cx="13.70820393249937" cy="21.412678195541844" r="2" fill="black" />
<circle cx="4.000000000000003" cy="20.392304845413264" r="2" fill="black" />
<circle cx="-1.7377712088056665" cy="7.505059710186886" r="2" fill="black" />
<circle cx="0.2917960675006306" cy="2.9465769724903232" r="2" fill="black" />
<circle cx="3.9999999999999947" cy="-0.39230484541326227" r="2" fill="black" />
<circle cx="8.74565844078816" cy="-1.9342627444192804" r="2" fill="black" />
<circle cx="18.029567276306295" cy="1.0822620942712646" r="2" fill="black" />
<circle cx="35.0" cy="10.0" r="2" fill="black" />
<circle cx="34.488248531312365" cy="15.032463002216502" r="2" fill="black" />
<circle cx="32.97394529050577" cy="19.858896377832963" r="2" fill="black" />
<circle cx="27.224172976892167" cy="28.119819680728" r="2" fill="black" />
<circle cx="13.785694437614412" cy="34.711708108202785" r="2" fill="black" />
<circle cx="8.733770779032184" cy="34.967912679276324" r="2" fill="black" />
<circle cx="3.7336866935319897" cy="34.20192797165511" r="2" fill="black" />
<circle cx="-1.009853788940859" cy="32.445113489268536" r="2" fill="black" />
<circle cx="-8.96895306731978" cy="26.284312068055545" r="2" fill="black" />
<circle cx="-14.87173308479738" cy="12.529208049685806" r="2" fill="black" />
<circle cx="-14.87173308479738" cy="7.470791950314199" r="2" fill="black" />
<circle cx="-13.85348141000122" cy="2.515921925666045" r="2" fill="black" />
<circle cx="-11.858665403614555" cy="-2.13254906327702" r="2" fill="black" />
<circle cx="-5.302649563691567" cy="-9.769393423442466" r="2" fill="black" />
<circle cx="8.733770779032184" cy="-14.96791267927632" r="2" fill="black" />
<circle cx="13.785694437614438" cy="-14.711708108202782" r="2" fill="black" />
<circle cx="18.682631321120507" cy="-13.443803303677011" r="2" fill="black" />
<circle cx="23.22410025817406" cy="-11.216106437368772" r="2" fill="black" />
<circle cx="30.519086030181917" cy="-4.281705377369791" r="2" fill="black" />
<circle cx="47.0" cy="10.0" r="2" fill="black" />
<circle cx="46.66986706172686" cy="14.931617348829818" r="2" fill="black" />
<circle cx="44.06404580702787" cy="24.44440318104931" r="2" fill="black" />
<circle cx="35.72211982396176" cy="36.596476303483385" r="2" fill="black" />
<circle cx="31.947650554986144" cy="39.78759196571983" r="2" fill="black" />
<circle cx="27.7815249419073" cy="42.44714734364685" r="2" fill="black" />
<circle cx="23.298087594987976" cy="44.527682608539294" r="2" fill="black" />
<circle cx="13.703540590091634" cy="46.814179158274655" r="2" fill="black" />
<circle cx="-0.9621964927684594" cy="45.33879239665576" r="2" fill="black" />
<circle cx="-5.574586209848391" cy="43.56236380817061" r="2" fill="black" />
<circle cx="-9.909047067044785" cy="41.187014042421495" r="2" fill="black" />
<circle cx="-13.88823050767569" cy="38.25513127225129" r="2" fill="black" />
<circle cx="-20.504337732645137" cy="30.940042490232017" r="2" fill="black" />
<circle cx="-26.258583086353717" cy="17.369881448841927" r="2" fill="black" />
<circle cx="-26.917374509056664" cy="12.471327448569504" r="2" fill="black" />
<circle cx="-26.917374509056664" cy="7.528672551430506" r="2" fill="black" />
<circle cx="-26.258583086353717" cy="2.6301185511580654" r="2" fill="black" />
<circle cx="-23.023196926815608" cy="-6.687374410995769" r="2" fill="black" />
<circle cx="-13.888230507675694" cy="-18.25513127225128" r="2" fill="black" />
<circle cx="-9.909047067044796" cy="-21.187014042421488" r="2" fill="black" />
<circle cx="-5.574586209848398" cy="-23.56236380817061" r="2" fill="black" />
<circle cx="-0.9621964927684594" cy="-25.338792396655762" r="2" fill="black" />
<circle cx="8.763645850716042" cy="-26.97933785801942" r="2" fill="black" />
<circle cx="23.298087594987983" cy="-24.527682608539294" r="2" fill="black" />
<circle cx="27.781524941907307" cy="-22.44714734364684" r="2" fill="black" />
<circle cx="31.94765055498615" cy="-19.787591965719823" r="2" fill="black" />
<circle cx="35.722119823961776" cy="-16.596476303483374" r="2" fill="black" />
<circle cx="41.83485843262517" cy="-8.855815775900933" r="2" fill="black" />
<circle cx="46.66986706172686" cy="5.068382651170172" r="2" fill="black" />
<circle cx="60.0" cy="10.0" r="2" fill="black" />
<circle cx="58.97649706262472" cy="20.064926004433005" r="2" fill="black" />
<circle cx="53.717330807229104" cy="34.26509812655405" r="2" fill="black" />
<circle cx="51.03817206036381" cy="38.56341075473962" r="2" fill="black" />
<circle cx="47.93790613463954" cy="42.56862413611111" r="2" fill="black" />
<circle cx="44.44834595378433" cy="46.239639361456" r="2" fill="black" />
<circle cx="36.44820051634812" cy="52.432212874737544" r="2" fill="black" />
<circle cx="22.532626612936028" cy="58.40385594331021" r="2" fill="black" />
<circle cx="17.571388875228823" cy="59.42341621640557" r="2" fill="black" />
<circle cx="12.532458441935638" cy="59.93582535855264" r="2" fill="black" />
<circle cx="7.467541558064368" cy="59.93582535855264" r="2" fill="black" />
<circle cx="-2.5326266129360206" cy="58.40385594331021" r="2" fill="black" />
<circle cx="-16.448200516348123" cy="52.432212874737544" r="2" fill="black" />
<circle cx="-20.605299127383145" cy="49.538786846884925" r="2" fill="black" />
<circle cx="-24.448345953784326" cy="46.23963936145599" r="2" fill="black" />
<circle cx="-27.93790613463956" cy="42.56862413611109" r="2" fill="black" />
<circle cx="-33.717330807229104" cy="34.26509812655405" r="2" fill="black" />
<circle cx="-38.97649706262473" cy="20.064926004432987" r="2" fill="black" />
<circle cx="-39.74346616959476" cy="15.058416099371614" r="2" fill="black" />
<circle cx="-40.0" cy="10.000000000000005" r="2" fill="black" />
<circle cx="-39.74346616959476" cy="4.941583900628398" r="2" fill="black" />
<circle cx="-37.70696282000244" cy="-4.96815614866791" r="2" fill="black" />
<circle cx="-31.038172060363806" cy="-18.56341075473962" r="2" fill="black" />
<circle cx="-27.93790613463954" cy="-22.56862413611112" r="2" fill="black" />
<circle cx="-24.44834595378432" cy="-26.239639361456007" r="2" fill="black" />
<circle cx="-20.605299127383134" cy="-29.538786846884932" r="2" fill="black" />
<circle cx="-12.01970757788171" cy="-34.890226978537086" r="2" fill="black" />
<circle cx="2.4286111247711917" cy="-39.42341621640558" r="2" fill="black" />
<circle cx="7.467541558064367" cy="-39.93582535855264" r="2" fill="black" />
<circle cx="12.53245844193566" cy="-39.93582535855264" r="2" fill="black" />
<circle cx="17.571388875228877" cy="-39.42341621640556" r="2" fill="black" />
<circle cx="27.365262642241014" cy="-36.88760660735402" r="2" fill="black" />
<circle cx="40.605299127383155" cy="-29.538786846884918" r="2" fill="black" />
<circle cx="44.448345953784326" cy="-26.239639361456" r="2" fill="black" />
<circle cx="47.937906134639555" cy="-22.568624136111097" r="2" fill="black" />
<circle cx="51.038172060363834" cy="-18.563410754739582" r="2" fill="black" />
<circle cx="55.94789058101155" cy="-9.717792755665897" r="2" fill="black" />
<circle cx="59.74346616959476" cy="4.941583900628402" r="2" fill="black" />
<circle cx="71.79895310432101" cy="14.988927260437004" r="2" fill="black" />
<circle cx="68.80925940072302" cy="29.633415615691295" r="2" fill="black" />
<circle cx="67.0387255068471" cy="34.301929811324655" r="2" fill="black" />
<circle cx="64.89827359049902" cy="38.81283666671365" r="2" fill="black" />
<circle cx="62.40178530371528" cy="43.136881219923666" r="2" fill="black" />
<circle cx="56.40766638660828" cy="51.113604810929296" r="2" fill="black" />
<circle cx="45.220014297331666" cy="61.02499968540669" r="2" fill="black" />
<circle cx="41.00000000000001" cy="63.693575034635195" r="2" fill="black" />
<circle cx="36.57893880698936" cy="66.0139269458437" r="2" fill="black" />
<circle cx="31.98550299663722" cy="67.97100704649571" r="2" fill="black" />
<circle cx="22.40159301411477" cy="70.7470204266206" r="2" fill="black" />
<circle cx="7.503511713216277" cy="71.94971788663733" r="2" fill="black" />
<circle cx="2.526725824169981" cy="71.54795019407935" r="2" fill="black" />
<circle cx="-2.4015930141147486" cy="70.7470204266206" r="2" fill="black" />
<circle cx="-7.249482762820051" cy="69.55212292114508" r="2" fill="black" />
<circle cx="-16.578938806989342" cy="66.0139269458437" r="2" fill="black" />
<circle cx="-29.211613286913384" cy="58.02550763331458" r="2" fill="black" />
<circle cx="-32.94890991759516" cy="54.714551735316505" r="2" fill="black" />
<circle cx="-36.407666386608255" cy="51.11360481092932" r="2" fill="black" />
<circle cx="-39.56545133101706" cy="47.24602038275471" r="2" fill="black" />
<circle cx="-44.89827359049901" cy="38.81283666671366" r="2" fill="black" />
<circle cx="-50.19839268041522" cy="24.8375711858286" r="2" fill="black" />
<circle cx="-51.1971162835506" cy="19.945499413181153" r="2" fill="black" />
<circle cx="-51.798953104321015" cy="14.988927260437045" r="2" fill="black" />
<circle cx="-52.0" cy="10.000000000000036" r="2" fill="black" />
<circle cx="-51.1971162835506" cy="0.05450058681886283" r="2" fill="black" />
<circle cx="-47.0387255068471" cy="-14.301929811324644" r="2" fill="black" />
<circle cx="-44.89827359049902" cy="-18.812836666713643" r="2" fill="black" />
<circle cx="-42.40178530371529" cy="-23.136881219923644" r="2" fill="black" />
<circle cx="-39.56545133101709" cy="-27.246020382754672" r="2" fill="black" />
<circle cx="-32.948909917595174" cy="-34.71455173531649" r="2" fill="black" />
<circle cx="-21.00000000000003" cy="-43.69357503463519" r="2" fill="black" />
<circle cx="-16.578938806989406" cy="-46.01392694584368" r="2" fill="black" />
<circle cx="-11.985502996637226" cy="-47.971007046495714" r="2" fill="black" />
<circle cx="-7.249482762820104" cy="-49.55212292114507" r="2" fill="black" />
<circle cx="2.5267258241699384" cy="-51.54795019407935" r="2" fill="black" />
<circle cx="17.473274175829985" cy="-51.547950194079355" r="2" fill="black" />
<circle cx="22.401593014114688" cy="-50.74702042662061" r="2" fill="black" />
<circle cx="27.24948276282003" cy="-49.55212292114509" r="2" fill="black" />
<circle cx="31.985502996637152" cy="-47.97100704649574" r="2" fill="black" />
<circle cx="41.00000000000001" cy="-43.693575034635195" r="2" fill="black" />
<circle cx="52.94890991759512" cy="-34.71455173531655" r="2" fill="black" />
<circle cx="56.40766638660825" cy="-31.113604810929324" r="2" fill="black" />
<circle cx="59.56545133101704" cy="-27.246020382754736" r="2" fill="black" />
<circle cx="62.401785303715265" cy="-23.136881219923687" r="2" fill="black" />
<circle cx="67.0387255068471" cy="-14.301929811324666" r="2" fill="black" />
<circle cx="71.19711628355059" cy="0.054500586818786445" r="2" fill="black" />
<circle cx="71.79895310432101" cy="5.011072739562948" r="2" fill="black" />
<circle cx="85.0" cy="10.0" r="2" fill="black" />
<circle cx="83.49712787774402" cy="24.938948882787706" r="2" fill="black" />
<circle cx="82.33518812907825" cy="29.81465514034645" r="2" fill="black" />
<circle cx="80.85018187059391" cy="34.60186433796768" r="2" fill="black" />
<circle cx="79.04874150073216" cy="39.279195637262106" r="2" fill="black" />
<circle cx="74.53011844451045" cy="48.22124819439381" r="2" fill="black" />
<circle cx="65.62390792359682" cy="60.30885476044176" r="2" fill="black" />
<circle cx="62.13943207559817" cy="63.9117762908447" r="2" fill="black" />
<circle cx="58.42208886691018" cy="67.27391474104991" r="2" fill="black" />
<circle cx="54.48848085470164" cy="70.38025398456722" r="2" fill="black" />
<circle cx="46.04363163900128" cy="75.77124461550036" r="2" fill="black" />
<circle cx="32.220668566422546" cy="81.63268729051843" r="2" fill="black" />
<circle cx="27.386511270064616" cy="82.95689978237779" r="2" fill="black" />
<circle cx="22.474701593734746" cy="83.95526904925214" r="2" fill="black" />
<circle cx="17.507176871807367" cy="84.62333613163781" r="2" fill="black" />
<circle cx="7.49387672442441" cy="84.9581172797691" r="2" fill="black" />
<circle cx="-7.386511270064624" cy="82.95689978237779" r="2" fill="black" />
<circle cx="-12.220668566422553" cy="81.63268729051843" r="2" fill="black" />
<circle cx="-16.955582962813452" cy="79.9885458281202" r="2" fill="black" />
<circle cx="-21.570107182125117" cy="78.03181853007555" r="2" fill="black" />
<circle cx="-30.356176487252945" cy="73.21692035625978" r="2" fill="black" />
<circle cx="-42.13943207559817" cy="63.911776290844706" r="2" fill="black" />
<circle cx="-45.62390792359682" cy="60.30885476044176" r="2" fill="black" />
<circle cx="-48.85995389589957" cy="56.48124167201836" r="2" fill="black" />
<circle cx="-51.83311702563203" cy="52.44603207479463" r="2" fill="black" />
<circle cx="-56.93891268949109" cy="43.82575894120763" r="2" fill="black" />
<circle cx="-62.33518812907825" cy="29.814655140346435" r="2" fill="black" />
<circle cx="-63.49712787774402" cy="24.93894888278769" r="2" fill="black" />
<circle cx="-64.3308116116085" cy="19.996521653033426" r="2" fill="black" />
<circle cx="-64.83251589673648" cy="15.009447530884128" r="2" fill="black" />
<circle cx="-64.83251589673648" cy="4.990552469115891" r="2" fill="black" />
<circle cx="-62.33518812907825" cy="-9.81465514034645" r="2" fill="black" />
<circle cx="-60.850181870593914" cy="-14.60186433796768" r="2" fill="black" />
<circle cx="-59.04874150073216" cy="-19.279195637262116" r="2" fill="black" />
<circle cx="-56.93891268949109" cy="-23.825758941207646" r="2" fill="black" />
<circle cx="-51.83311702563201" cy="-32.44603207479464" r="2" fill="black" />
<circle cx="-42.13943207559818" cy="-43.911776290844685" r="2" fill="black" />
<circle cx="-38.42208886691019" cy="-47.273914741049886" r="2" fill="black" />
<circle cx="-34.48848085470162" cy="-50.38025398456723" r="2" fill="black" />
<circle cx="-30.35617648725296" cy="-53.21692035625978" r="2" fill="black" />
<circle cx="-21.570107182125135" cy="-58.031818530075554" r="2" fill="black" />
<circle cx="-7.386511270064656" cy="-62.956899782377775" r="2" fill="black" />
<circle cx="-2.4747015937347534" cy="-63.95526904925214" r="2" fill="black" />
<circle cx="2.492823128192591" cy="-64.6233361316378" r="2" fill="black" />
<circle cx="7.493876724424409" cy="-64.9581172797691" r="2" fill="black" />
<circle cx="17.50717687180738" cy="-64.6233361316378" r="2" fill="black" />
<circle cx="32.22066856642253" cy="-61.63268729051845" r="2" fill="black" />
<circle cx="36.95558296281348" cy="-59.988545828120195" r="2" fill="black" />
<circle cx="41.57010718212511" cy="-58.031818530075554" r="2" fill="black" />
<circle cx="46.0436316390013" cy="-55.77124461550035" r="2" fill="black" />
<circle cx="54.488480854701656" cy="-50.380253984567204" r="2" fill="black" />
<circle cx="65.62390792359686" cy="-40.30885476044172" r="2" fill="black" />
<circle cx="68.8599538958996" cy="-36.48124167201835" r="2" fill="black" />
<circle cx="71.83311702563205" cy="-32.44603207479458" r="2" fill="black" />
<circle cx="74.53011844451046" cy="-28.22124819439378" r="2" fill="black" />
<circle cx="79.04874150073218" cy="-19.279195637262077" r="2" fill="black" />
<circle cx="83.49712787774402" cy="-4.938948882787699" r="2" fill="black" />
<circle cx="84.3308116116085" cy="0.0034783469665651268" r="2" fill="black" />
<circle cx="84.83251589673648" cy="4.9905524691158965" r="2" fill="black" />
<circle cx="96.42246952164447" cy="20.007835019644926" r="2" fill="black" />
<circle cx="95.70235491607195" cy="24.97018242506203" r="2" fill="black" />
<circle cx="94.69754570619699" cy="29.88280038995195" r="2" fill="black" />
<circle cx="93.41137976716526" cy="34.72936969147683" r="2" fill="black" />
<circle cx="90.01298820314994" cy="44.16023593013649" r="2" fill="black" />
<circle cx="82.9415695324659" cy="57.418640154905766" r="2" fill="black" />
<circle cx="80.08853532359912" cy="61.54218870200021" r="2" fill="black" />
<circle cx="77.0026740488993" cy="65.49451928160974" r="2" fill="black" />
<circle cx="73.69423662918877" cy="69.26250264901836" r="2" fill="black" />
<circle cx="66.45429740721646" cy="76.19601426262425" r="2" fill="black" />
<circle cx="54.221837052956936" cy="84.92282114056921" r="2" fill="black" />
<circle cx="49.83193444557222" cy="87.34608586298106" r="2" fill="black" />
<circle cx="45.309714157691" cy="89.51241466652962" r="2" fill="black" />
<circle cx="40.67019855032875" cy="91.41461122478823" r="2" fill="black" />
<circle cx="31.10126784037194" cy="94.40223039427859" r="2" fill="black" />
<circle cx="16.26335125919752" cy="96.7742498152759" r="2" fill="black" />
<circle cx="11.253711470947472" cy="96.99096624102766" r="2" fill="black" />
<circle cx="6.239906979271455" cy="96.91870742524573" r="2" fill="black" />
<circle cx="1.2385931384734121" cy="96.55771340444937" r="2" fill="black" />
<circle cx="-8.660203826280977" cy="94.97527165688645" r="2" fill="black" />
<circle cx="-23.003663556884703" cy="90.4969452328718" r="2" fill="black" />
<circle cx="-27.586434837921814" cy="88.46183732346992" r="2" fill="black" />
<circle cx="-32.044347762338504" cy="86.16608708105952" r="2" fill="black" />
<circle cx="-36.36259359171357" cy="83.61732075707184" r="2" fill="black" />
<circle cx="-44.52321646378521" cy="77.79541921430402" r="2" fill="black" />
<circle cx="-55.37560737663017" cy="67.4023515209673" r="2" fill="black" />
<circle cx="-58.57408512737287" cy="63.540590666743846" r="2" fill="black" />
<circle cx="-61.54476666353244" cy="59.500973354679566" r="2" fill="black" />
<circle cx="-64.27778367979482" cy="55.29691878723768" r="2" fill="black" />
<circle cx="-68.99532857842871" cy="46.451859524393036" r="2" fill="black" />
<circle cx="-74.08938705003585" cy="32.315353135213044" r="2" fill="black" />
<circle cx="-75.23535057027117" cy="27.433732049190624" r="2" fill="black" />
<circle cx="-76.09817082767607" cy="22.494197858538584" r="2" fill="black" />
<circle cx="-76.67498162012572" cy="17.513159199089934" r="2" fill="black" />
<circle cx="-76.96386684017506" cy="7.492837419651003" r="2" fill="black" />
<circle cx="-75.23535057027115" cy="-7.433732049190681" r="2" fill="black" />
<circle cx="-74.08938705003584" cy="-12.315353135213098" r="2" fill="black" />
<circle cx="-72.66408704253959" cy="-17.122844862282385" r="2" fill="black" />
<circle cx="-70.96418525107082" cy="-21.840237226350695" r="2" fill="black" />
<circle cx="-66.7640573684801" cy="-30.942392410906997" r="2" fill="black" />
<circle cx="-58.57408512737284" cy="-43.540590666743896" r="2" fill="black" />
<circle cx="-55.37560737663016" cy="-47.40235152096733" r="2" fill="black" />
<circle cx="-51.95995843273472" cy="-51.07342753615344" r="2" fill="black" />
<circle cx="-48.33848473798058" cy="-54.54162376696458" r="2" fill="black" />
<circle cx="-40.526827547669804" cy="-60.82400509691638" r="2" fill="black" />
<circle cx="-27.586434837921836" cy="-68.46183732346991" r="2" fill="black" />
<circle cx="-23.003663556884668" cy="-70.49694523287181" r="2" fill="black" />
<circle cx="-18.31125742455253" cy="-72.26465038545244" r="2" fill="black" />
<circle cx="-13.524804142201209" cy="-73.7590806424657" r="2" fill="black" />
<circle cx="-3.7336161898288225" cy="-75.909183364472" r="2" fill="black" />
<circle cx="11.253711470947508" cy="-76.99096624102766" r="2" fill="black" />
<circle cx="16.263351259197535" cy="-76.7742498152759" r="2" fill="black" />
<circle cx="21.252184824443724" cy="-76.2692780581625" r="2" fill="black" />
<circle cx="26.203639763288376" cy="-75.47772843508173" r="2" fill="black" />
<circle cx="35.928799627756405" cy="-73.04635663208627" r="2" fill="black" />
<circle cx="49.831934445572294" cy="-67.34608586298101" r="2" fill="black" />
<circle cx="54.2218370529569" cy="-64.92282114056923" r="2" fill="black" />
<circle cx="58.46483916485761" cy="-62.25067034100434" r="2" fill="black" />
<circle cx="62.54684595495953" cy="-59.33851008051553" r="2" fill="black" />
<circle cx="70.17421336086004" cy="-52.833621942409884" r="2" fill="black" />
<circle cx="80.08853532359915" cy="-41.542188702000175" r="2" fill="black" />
<circle cx="82.9415695324659" cy="-37.41864015490576" r="2" fill="black" />
<circle cx="85.55229918277557" cy="-33.13757165391174" r="2" fill="black" />
<circle cx="87.91205169317993" cy="-28.713204478049335" r="2" fill="black" />
<circle cx="91.84812961288193" cy="-19.493790513816275" r="2" fill="black" />
<circle cx="95.70235491607197" cy="-4.9701824250620295" r="2" fill="black" />
<circle cx="96.42246952164447" cy="-0.00783501964495592" r="2" fill="black" />
<circle cx="96.85549737461375" cy="4.987757407261187" r="2" fill="black" />
<circle cx="10" cy="10" r="100" fill="none" stroke="black" stroke-width="2" />
</svg>